<svg width="39" height="40" viewBox="0 0 39 40" fill="none" xmlns="http://www.w3.org/2000/svg">
<path d="M6.34918 6.66666H9.53137C10.2895 6.66666 10.6685 6.66666 10.9411 6.88192C11.2136 7.09718 11.3014 7.46593 11.477 8.20342L11.9666 10.2598C12.3178 11.7348 12.4934 12.4723 13.0384 12.9028C13.5835 13.3333 14.3467 13.3333 15.873 13.3333V13.3333" stroke="white" stroke-width="2" stroke-linecap="round"/>
<path d="M28.5714 28.3333H12.057C10.9968 28.3333 10.4667 28.3333 10.172 28.0289C10.1081 27.9629 10.0537 27.8885 10.0101 27.8077C9.8091 27.4347 9.9695 26.9294 10.2903 25.9189V25.9189C10.6538 24.7739 10.8355 24.2014 11.2495 23.8352C11.3419 23.7535 11.4417 23.6805 11.5476 23.6171C12.0219 23.3333 12.6225 23.3333 13.8238 23.3333H22.2222" stroke="white" stroke-width="2" stroke-linecap="round" stroke-linejoin="round"/>
<path d="M25.7213 23.3333H14.406C13.4224 23.3333 12.5849 22.6182 12.4307 21.6469L11.3865 15.0685C11.2419 14.1577 11.9457 13.3333 12.868 13.3333H30.1622C30.8972 13.3333 31.3811 14.0997 31.0651 14.7633L27.527 22.1932C27.1954 22.8897 26.4927 23.3333 25.7213 23.3333Z" stroke="white" stroke-width="2" stroke-linecap="round"/>
<ellipse cx="26.9842" cy="33.3333" rx="1.5873" ry="1.66667" fill="white"/>
<ellipse cx="14.2857" cy="33.3333" rx="1.5873" ry="1.66667" fill="white"/>
</svg>
